<mxfile host="app.diagrams.net" agent="Mozilla/5.0 (X11; Ubuntu; Linux x86_64; rv:138.0) Gecko/20100101 Firefox/138.0" version="27.1.1">
  <diagram name="PÃ¡gina-1" id="wjpMNCQlULNt_7o0CSOt">
    <mxGraphModel dx="1301" dy="799" grid="1" gridSize="10" guides="1" tooltips="1" connect="1" arrows="1" fold="1" page="1" pageScale="1" pageWidth="827" pageHeight="1169" math="0" shadow="0">
      <root>
        <mxCell id="0" />
        <mxCell id="1" parent="0" />
        <mxCell id="pXhN5apPgbjw7_3pU-Wd-1" value="" style="whiteSpace=wrap;html=1;" parent="1" vertex="1">
          <mxGeometry x="239" y="510" width="281" height="410" as="geometry" />
        </mxCell>
        <mxCell id="pXhN5apPgbjw7_3pU-Wd-3" value="+" style="whiteSpace=wrap;html=1;" parent="1" vertex="1">
          <mxGeometry x="289" y="540" width="30" height="30" as="geometry" />
        </mxCell>
        <mxCell id="pXhN5apPgbjw7_3pU-Wd-4" value="NOT" style="whiteSpace=wrap;html=1;" parent="1" vertex="1">
          <mxGeometry x="289" y="725" width="30" height="30" as="geometry" />
        </mxCell>
        <mxCell id="pXhN5apPgbjw7_3pU-Wd-6" value="OR" style="whiteSpace=wrap;html=1;" parent="1" vertex="1">
          <mxGeometry x="289" y="660" width="30" height="30" as="geometry" />
        </mxCell>
        <mxCell id="pXhN5apPgbjw7_3pU-Wd-8" value="-" style="whiteSpace=wrap;html=1;" parent="1" vertex="1">
          <mxGeometry x="289" y="600" width="30" height="30" as="geometry" />
        </mxCell>
        <mxCell id="pXhN5apPgbjw7_3pU-Wd-9" value="SL" style="whiteSpace=wrap;html=1;" parent="1" vertex="1">
          <mxGeometry x="289" y="790" width="30" height="30" as="geometry" />
        </mxCell>
        <mxCell id="pXhN5apPgbjw7_3pU-Wd-10" value="SR" style="whiteSpace=wrap;html=1;" parent="1" vertex="1">
          <mxGeometry x="289" y="860" width="30" height="30" as="geometry" />
        </mxCell>
        <mxCell id="UletXSA8wV_9DIR7e6r4-6" style="edgeStyle=orthogonalEdgeStyle;rounded=0;orthogonalLoop=1;jettySize=auto;html=1;exitX=0.5;exitY=0;exitDx=0;exitDy=0;" edge="1" parent="1" source="pXhN5apPgbjw7_3pU-Wd-11">
          <mxGeometry relative="1" as="geometry">
            <mxPoint x="610" y="715" as="targetPoint" />
          </mxGeometry>
        </mxCell>
        <mxCell id="pXhN5apPgbjw7_3pU-Wd-11" value="" style="shape=trapezoid;perimeter=trapezoidPerimeter;whiteSpace=wrap;html=1;fixedSize=1;rotation=90;" parent="1" vertex="1">
          <mxGeometry x="330" y="685" width="250" height="60" as="geometry" />
        </mxCell>
        <mxCell id="pXhN5apPgbjw7_3pU-Wd-13" value="&lt;div&gt;MUX&lt;/div&gt;&lt;div&gt;&lt;br&gt;&lt;/div&gt;" style="text;html=1;align=center;verticalAlign=middle;resizable=0;points=[];autosize=1;strokeColor=none;fillColor=none;" parent="1" vertex="1">
          <mxGeometry x="430" y="695" width="50" height="40" as="geometry" />
        </mxCell>
        <mxCell id="pXhN5apPgbjw7_3pU-Wd-14" value="ZERO" style="whiteSpace=wrap;html=1;" parent="1" vertex="1">
          <mxGeometry x="339.5" y="855" width="40.5" height="40" as="geometry" />
        </mxCell>
        <mxCell id="UletXSA8wV_9DIR7e6r4-8" style="edgeStyle=orthogonalEdgeStyle;rounded=0;orthogonalLoop=1;jettySize=auto;html=1;" edge="1" parent="1" source="pXhN5apPgbjw7_3pU-Wd-15">
          <mxGeometry relative="1" as="geometry">
            <mxPoint x="230" y="615" as="targetPoint" />
          </mxGeometry>
        </mxCell>
        <mxCell id="pXhN5apPgbjw7_3pU-Wd-15" value="RA" style="text;html=1;align=center;verticalAlign=middle;resizable=0;points=[];autosize=1;strokeColor=none;fillColor=none;" parent="1" vertex="1">
          <mxGeometry x="130" y="600" width="40" height="30" as="geometry" />
        </mxCell>
        <mxCell id="UletXSA8wV_9DIR7e6r4-9" style="edgeStyle=orthogonalEdgeStyle;rounded=0;orthogonalLoop=1;jettySize=auto;html=1;" edge="1" parent="1" source="pXhN5apPgbjw7_3pU-Wd-16">
          <mxGeometry relative="1" as="geometry">
            <mxPoint x="230" y="770" as="targetPoint" />
          </mxGeometry>
        </mxCell>
        <mxCell id="pXhN5apPgbjw7_3pU-Wd-16" value="RB" style="text;html=1;align=center;verticalAlign=middle;resizable=0;points=[];autosize=1;strokeColor=none;fillColor=none;" parent="1" vertex="1">
          <mxGeometry x="130" y="755" width="40" height="30" as="geometry" />
        </mxCell>
        <mxCell id="UletXSA8wV_9DIR7e6r4-10" style="edgeStyle=orthogonalEdgeStyle;rounded=0;orthogonalLoop=1;jettySize=auto;html=1;entryX=0;entryY=0.5;entryDx=0;entryDy=0;" edge="1" parent="1" source="UletXSA8wV_9DIR7e6r4-4" target="UletXSA8wV_9DIR7e6r4-12">
          <mxGeometry relative="1" as="geometry">
            <mxPoint x="340" y="400" as="targetPoint" />
          </mxGeometry>
        </mxCell>
        <mxCell id="UletXSA8wV_9DIR7e6r4-4" value="MULTI-OPS" style="rounded=0;whiteSpace=wrap;html=1;" vertex="1" parent="1">
          <mxGeometry x="339.5" y="540" width="70.5" height="70" as="geometry" />
        </mxCell>
        <mxCell id="UletXSA8wV_9DIR7e6r4-12" value="" style="rounded=0;whiteSpace=wrap;html=1;" vertex="1" parent="1">
          <mxGeometry x="400" y="270" width="210" height="130" as="geometry" />
        </mxCell>
        <mxCell id="UletXSA8wV_9DIR7e6r4-14" value="AND" style="whiteSpace=wrap;html=1;" vertex="1" parent="1">
          <mxGeometry x="480" y="350" width="40" height="30" as="geometry" />
        </mxCell>
        <mxCell id="UletXSA8wV_9DIR7e6r4-16" value="&lt;div&gt;XOR&lt;/div&gt;" style="whiteSpace=wrap;html=1;" vertex="1" parent="1">
          <mxGeometry x="420" y="350" width="40" height="30" as="geometry" />
        </mxCell>
        <mxCell id="UletXSA8wV_9DIR7e6r4-17" value="XNOR" style="whiteSpace=wrap;html=1;" vertex="1" parent="1">
          <mxGeometry x="480" y="300" width="40" height="30" as="geometry" />
        </mxCell>
        <mxCell id="UletXSA8wV_9DIR7e6r4-18" value="NOT" style="whiteSpace=wrap;html=1;" vertex="1" parent="1">
          <mxGeometry x="420" y="300" width="40" height="30" as="geometry" />
        </mxCell>
        <mxCell id="UletXSA8wV_9DIR7e6r4-19" style="edgeStyle=orthogonalEdgeStyle;rounded=0;orthogonalLoop=1;jettySize=auto;html=1;exitX=0.5;exitY=1;exitDx=0;exitDy=0;" edge="1" parent="1" source="UletXSA8wV_9DIR7e6r4-18" target="UletXSA8wV_9DIR7e6r4-18">
          <mxGeometry relative="1" as="geometry" />
        </mxCell>
        <mxCell id="UletXSA8wV_9DIR7e6r4-21" style="edgeStyle=orthogonalEdgeStyle;rounded=0;orthogonalLoop=1;jettySize=auto;html=1;" edge="1" parent="1" source="UletXSA8wV_9DIR7e6r4-22">
          <mxGeometry relative="1" as="geometry">
            <mxPoint x="670" y="340" as="targetPoint" />
          </mxGeometry>
        </mxCell>
        <mxCell id="UletXSA8wV_9DIR7e6r4-20" value="" style="shape=trapezoid;perimeter=trapezoidPerimeter;whiteSpace=wrap;html=1;fixedSize=1;rotation=90;" vertex="1" parent="1">
          <mxGeometry x="530" y="310" width="80" height="60" as="geometry" />
        </mxCell>
        <mxCell id="UletXSA8wV_9DIR7e6r4-27" style="edgeStyle=orthogonalEdgeStyle;rounded=0;orthogonalLoop=1;jettySize=auto;html=1;" edge="1" parent="1" source="UletXSA8wV_9DIR7e6r4-23">
          <mxGeometry relative="1" as="geometry">
            <mxPoint x="390" y="305" as="targetPoint" />
          </mxGeometry>
        </mxCell>
        <mxCell id="UletXSA8wV_9DIR7e6r4-23" value="R0" style="text;html=1;align=center;verticalAlign=middle;whiteSpace=wrap;rounded=0;" vertex="1" parent="1">
          <mxGeometry x="300" y="290" width="60" height="30" as="geometry" />
        </mxCell>
        <mxCell id="UletXSA8wV_9DIR7e6r4-22" value="&lt;div&gt;MUX&lt;/div&gt;&lt;div&gt;&lt;br&gt;&lt;/div&gt;" style="text;html=1;align=center;verticalAlign=middle;resizable=0;points=[];autosize=1;strokeColor=none;fillColor=none;" vertex="1" parent="1">
          <mxGeometry x="540" y="320" width="50" height="40" as="geometry" />
        </mxCell>
        <mxCell id="UletXSA8wV_9DIR7e6r4-29" value="(lógico)" style="text;html=1;align=center;verticalAlign=middle;whiteSpace=wrap;rounded=0;strokeWidth=2;fontStyle=0;fontSize=14;" vertex="1" parent="1">
          <mxGeometry x="284" y="700" width="40" height="35" as="geometry" />
        </mxCell>
        <mxCell id="UletXSA8wV_9DIR7e6r4-30" value="(aritmético)" style="text;html=1;align=center;verticalAlign=middle;whiteSpace=wrap;rounded=0;strokeWidth=2;fontStyle=0;fontSize=14;" vertex="1" parent="1">
          <mxGeometry x="420" y="270" width="40" height="35" as="geometry" />
        </mxCell>
      </root>
    </mxGraphModel>
  </diagram>
</mxfile>
